<?xml version="1.0" standalone="no"?>
<!DOCTYPE svg PUBLIC "-//W3C//DTD SVG 20010904//EN"
 "http://www.w3.org/TR/2001/REC-SVG-20010904/DTD/svg10.dtd">
<svg version="1.0" xmlns="http://www.w3.org/2000/svg"
 width="512.000000pt" height="512.000000pt" viewBox="0 0 512.000000 512.000000"
 preserveAspectRatio="xMidYMid meet">

<g transform="translate(0.000000,512.000000) scale(0.100000,-0.100000)"
fill="#000000" stroke="none">
<path d="M267 5109 c-97 -23 -190 -101 -235 -197 l-27 -57 0 -525 0 -525 33
-67 c38 -77 92 -130 171 -167 l56 -26 505 -3 c366 -2 517 0 550 9 118 31 217
130 249 249 9 33 11 181 9 550 l-3 505 -26 56 c-37 79 -90 133 -167 171 l-67
33 -505 2 c-278 1 -522 -3 -543 -8z m1055 -181 c24 -14 51 -41 66 -68 l27 -45
3 -453 c4 -519 1 -543 -58 -602 -59 -59 -83 -62 -602 -58 l-453 3 -45 27 c-27
15 -54 42 -68 66 -22 40 -22 41 -22 533 l0 494 24 39 c13 21 41 49 62 62 l39
24 494 0 c492 0 493 0 533 -22z"/>
<path d="M2029 5107 c-102 -29 -181 -96 -228 -197 l-26 -55 0 -525 0 -525 28
-61 c35 -76 94 -135 172 -171 l60 -28 525 0 525 0 60 28 c78 36 137 95 172
171 l28 61 0 525 0 525 -26 56 c-37 79 -90 133 -167 171 l-67 33 -505 2 c-379
2 -516 -1 -551 -10z m1063 -179 c22 -13 51 -41 64 -64 l24 -41 0 -494 0 -494
-23 -40 c-14 -24 -40 -50 -67 -65 l-45 -25 -485 0 -485 0 -45 25 c-27 15 -53
41 -67 65 l-23 40 0 495 0 495 24 39 c13 21 41 49 62 62 l39 24 494 0 c492 0
493 0 533 -22z"/>
<path d="M3799 5107 c-102 -29 -181 -96 -228 -197 l-26 -55 -3 -505 c-2 -369
0 -517 9 -550 32 -119 131 -218 249 -249 33 -9 184 -11 550 -9 l505 3 67 33
c77 38 130 92 167 171 l26 56 0 525 0 525 -27 57 c-34 73 -103 142 -176 176
l-57 27 -505 2 c-379 2 -516 -1 -551 -10z m1063 -179 c22 -13 51 -41 64 -64
l24 -41 0 -493 c0 -491 0 -492 -22 -532 -14 -24 -41 -51 -68 -66 l-45 -27
-453 -3 c-519 -4 -543 -1 -602 58 -59 59 -62 83 -58 602 l3 453 25 43 c14 25
42 54 65 68 l40 24 494 0 c492 0 493 0 533 -22z"/>
<path d="M253 3336 c-102 -33 -176 -97 -222 -196 l-26 -55 0 -525 0 -525 33
-67 c38 -77 92 -130 171 -167 l56 -26 525 0 525 0 60 28 c78 36 137 95 172
171 l28 61 0 525 0 525 -28 60 c-36 78 -95 137 -171 172 l-61 28 -510 2 c-402
2 -519 -1 -552 -11z m1072 -179 c24 -14 50 -40 65 -67 l25 -45 0 -485 0 -485
-25 -45 c-15 -27 -41 -53 -65 -67 l-40 -23 -494 0 -494 0 -41 24 c-23 13 -51
42 -64 64 -22 40 -22 41 -22 533 l0 494 24 39 c13 21 41 49 62 62 l39 24 495
0 495 0 40 -23z"/>
<path d="M2023 3336 c-102 -33 -176 -97 -222 -196 l-26 -55 0 -525 0 -525 33
-67 c38 -77 92 -130 171 -167 l56 -26 525 0 525 0 67 33 c77 38 130 92 167
171 l26 56 0 525 0 525 -26 56 c-37 79 -90 133 -167 171 l-67 33 -510 2 c-402
2 -519 -1 -552 -11z m1069 -178 c22 -13 51 -41 64 -64 l24 -41 0 -493 c0 -491
0 -492 -22 -532 -13 -22 -41 -51 -64 -64 l-41 -24 -493 0 -493 0 -41 24 c-23
13 -51 42 -64 64 -22 40 -22 41 -22 533 l0 494 24 39 c13 21 41 49 62 62 l39
24 494 0 c492 0 493 0 533 -22z"/>
<path d="M3795 3336 c-108 -34 -177 -94 -222 -191 l-28 -60 0 -525 0 -525 28
-61 c35 -76 94 -135 172 -171 l60 -28 525 0 525 0 67 33 c77 38 130 92 167
171 l26 56 0 525 0 525 -26 56 c-37 79 -90 133 -167 171 l-67 33 -510 2 c-393
2 -519 -1 -550 -11z m1067 -178 c22 -13 51 -41 64 -64 l24 -41 0 -493 c0 -491
0 -492 -22 -532 -13 -22 -41 -51 -64 -64 l-41 -24 -494 0 -494 0 -40 23 c-24
14 -50 40 -65 67 l-25 45 0 485 0 485 25 45 c15 27 41 53 65 67 l40 23 494 0
c492 0 493 0 533 -22z"/>
<path d="M227 1556 c-99 -41 -154 -94 -199 -192 l-23 -49 0 -525 0 -525 27
-57 c34 -73 103 -142 176 -176 l57 -27 525 0 525 0 67 33 c77 38 130 92 167
171 l26 56 3 505 c2 366 0 517 -9 550 -30 115 -123 211 -238 246 -37 11 -144
14 -546 14 l-500 0 -58 -24z m1044 -147 c72 -16 123 -68 139 -142 8 -39 10
-196 8 -509 l-3 -453 -25 -43 c-14 -26 -42 -54 -66 -68 l-41 -24 -493 0 -493
0 -41 24 c-23 13 -51 42 -64 64 -22 40 -22 41 -22 532 0 489 0 493 22 532 25
44 74 78 127 89 62 12 894 10 952 -2z"/>
<path d="M2019 1566 c-109 -41 -172 -96 -216 -191 l-28 -60 0 -525 0 -525 33
-67 c38 -77 92 -130 171 -167 l56 -26 525 0 525 0 67 33 c77 38 130 92 167
171 l26 56 0 525 0 525 -28 60 c-36 78 -95 137 -171 172 l-61 28 -515 2 c-406
1 -522 -1 -551 -11z m1071 -176 c27 -15 53 -41 67 -65 l23 -40 0 -494 c0 -492
0 -493 -22 -533 -13 -22 -41 -51 -64 -64 l-41 -24 -493 0 -493 0 -41 24 c-23
13 -51 42 -64 64 -22 40 -22 41 -22 533 0 493 0 494 23 533 23 42 68 74 120
87 18 4 241 7 497 6 l465 -2 45 -25z"/>
<path d="M3784 1565 c-111 -35 -203 -133 -233 -245 -9 -33 -11 -184 -9 -550
l3 -505 33 -67 c38 -77 92 -130 171 -167 l56 -26 525 0 525 0 57 27 c73 34
142 103 176 176 l27 57 0 525 0 525 -26 56 c-37 79 -90 133 -167 171 l-67 33
-515 2 c-400 1 -524 -2 -556 -12z m1076 -177 c27 -15 54 -42 68 -66 22 -40 22
-41 22 -532 0 -491 0 -492 -22 -532 -13 -22 -41 -51 -64 -64 l-41 -24 -493 0
-493 0 -41 24 c-24 14 -52 42 -66 68 l-25 43 -3 453 c-4 519 -1 543 58 602 25
25 53 42 82 48 26 6 229 10 508 9 l465 -2 45 -27z"/>
</g>
</svg>
